[Header]
FileType HTR
DataType HTRS
FileVersion 1
NumSegments 22
NumFrames 6
DataFrameRate 24
EulerRotationOrder ZYX
CalibrationUnits mm
RotationUnits Degrees
GlobalAxisofGravity Y
BoneLengthAxis Y
ScaleFactor 1.0
[SegmentNames&Hierarchy]
reference	GLOBAL
Hips	reference
Spine	Hips
Spine1	Spine
Neck	Spine1
Head	Neck
LeftShoulder	Spine1
LeftArm	LeftShoulder
LeftForeArm	LeftArm
LeftHand	LeftForeArm
RightShoulder	Spine1
RightArm	RightShoulder
RightForeArm	RightArm
RightHand	RightForeArm
LeftUpLeg	Hips
LeftLeg	LeftUpLeg
LeftFoot	LeftLeg
LeftToeBase	LeftFoot
RightUpLeg	Hips
RightLeg	RightUpLeg
RightFoot	RightLeg
RightToeBase	RightFoot
[BasePosition]
reference	0	0	0	0	0	0	1
Hips	0	0	0	0	0	0	1
Spine	0	0	0	0	-0	90	1
Spine1	0	0	0	0	0	0	1
Neck	0	0	0	-7.352430803	-7.352430803	90	1
Head	0	0	0	0	-0	90	1
LeftShoulder	0	0	0	0	0	0	1
LeftArm	0	0	0	0	0	0	1
LeftForeArm	0	0	0	0	0	0	1
LeftHand	0	0	0	0	0	0	1
RightShoulder	0	0	0	0	-0	180	1
RightArm	0	0	0	0	-0	180	1
RightForeArm	0	0	0	0	-0	180	1
RightHand	0	0	0	0	-0	180	1
LeftUpLeg	0	0	0	0	-0	-90	1
LeftLeg	0	0	0	0	-0	-90	1
LeftFoot	0	0	0	66.57150701	-66.57150701	-90	1
LeftToeBase	0	0	0	0	-90	0	1
RightUpLeg	0	0	0	0	-0	-90	1
RightLeg	0	0	0	0	-0	-90	1
RightFoot	0	0	0	66.57150701	-66.57150701	-90	1
RightToeBase	0	0	0	0	-90	0	1
[reference]
39	0	0	0	0	-0	0	1.0
40	0	0	0	0	-0	0	1.0
41	0	0	0	0	-0	0	1.0
42	0	0	0	0	-0	0	1.0
43	0	0	0	0	-0	0	1.0
44	0	0	0	0	-0	0	1.0
[Hips]
39	-1.3427248	8.756743431	2.951875687	-356.369812	-81.47177124	332.1438904	1.0
40	-1.603420019	8.790968895	3.028940678	-356.1832886	-80.32012939	331.0438843	1.0
41	-1.745584249	8.798091888	3.078843355	-353.3922424	-77.46575165	329.7020264	1.0
42	-1.800355911	8.804555893	3.138559341	-355.3860168	-74.52433777	334.0576782	1.0
43	-1.837146521	8.810506821	3.181892872	-356.983551	-73.42974854	339.7703857	1.0
44	-1.862417698	8.816087723	3.217227459	-356.4517822	-72.57119751	343.3546143	1.0
[Spine]
39	0	0.7478299737	0	3.17248559	-5.480681419	-91.74394226	1.0
40	0	0.7478299737	0	1.905328989	-3.275379658	-91.85272217	1.0
41	0	0.7478299737	0	2.171112299	-2.859139919	-92.00528717	1.0
42	0	0.7478299737	0	2.686692715	-3.511482954	-91.88137054	1.0
43	0	0.7478299737	0	0.1024326682	-2.878853798	-91.20059967	1.0
44	0	0.7478299737	0	-0.6525884867	-1.828455687	-91.54856873	1.0
[Spine1]
39	0	2.049309969	0	23.98900414	0.02476102673	-9.005701065	1.0
40	0	2.049309969	0	25.14957237	0.2279339284	-5.931640625	1.0
41	0	2.049309969	0	21.41862869	-0.3059943616	-3.49327445	1.0
42	0	2.049309969	0	17.91352844	-0.7112191319	-3.296803951	1.0
43	0	2.049309969	0	14.6851635	-0.3548936546	-4.61989069	1.0
44	0	2.049309969	0	11.67977142	-0.2605591118	-3.712123632	1.0
[Neck]
39	0	2.231709957	0	11.55545902	16.5970974	-83.88696289	1.0
40	0	2.231709957	0	15.34929276	13.43618965	-82.56254578	1.0
41	0	2.231709957	0	16.27526093	11.71426964	-82.12685394	1.0
42	0	2.231709957	0	14.17513466	11.3972044	-84.12443542	1.0
43	0	2.231709957	0	13.26568508	10.35336208	-82.95536041	1.0
44	0	2.231709957	0	13.02380371	9.283936501	-82.8177948	1.0
[Head]
39	0	1.413589954	0.1823999882	-17.7215023	9.995992661	-92.13673401	1.0
40	0	1.413589954	0.1823999882	-20.42709732	7.231831074	-91.82319641	1.0
41	0	1.413589954	0.1823999882	-20.79164505	5.736344337	-91.03310394	1.0
42	0	1.413589954	0.1823999882	-19.7686348	5.140860558	-86.98406982	1.0
43	0	1.413589954	0.1823999882	-17.40224648	4.219581604	-88.19945526	1.0
44	0	1.413589954	0.1823999882	-15.5206461	3.167428493	-88.29838562	1.0
[LeftShoulder]
39	0.3649300039	1.825889945	-0.04271000251	-2.437286854	-2.88416934	-1.882430077	1.0
40	0.3649300039	1.825889945	-0.04271000251	0.9088471532	-5.66435051	-3.669810772	1.0
41	0.3649300039	1.825889945	-0.04271000251	0.5965383053	-5.791048527	-3.13365984	1.0
42	0.3649300039	1.825889945	-0.04271000251	-2.890142202	-4.460772038	-2.819305182	1.0
43	0.3649300039	1.825889945	-0.04271000251	-5.800533772	-3.944273949	-1.615059972	1.0
44	0.3649300039	1.825889945	-0.04271000251	-8.424616814	-5.634683609	-0.70534271	1.0
[LeftArm]
39	1.24003005	0	0	-9.093186378	20.69515419	-80.73030853	1.0
40	1.24003005	0	0	-14.23394775	21.36578751	-83.71051025	1.0
41	1.24003005	0	0	-23.40263367	20.70712662	-80.98318481	1.0
42	1.24003005	0	0	-4.162149906	17.4489727	-77.52054596	1.0
43	1.24003005	0	0	9.248436928	12.55484867	-73.35454559	1.0
44	1.24003005	0	0	19.75741196	8.119882584	-72.41504669	1.0
[LeftForeArm]
39	2.847419977	0	0	3.418755531	7.36490202	-13.15245628	1.0
40	2.847419977	0	0	-0.3204005361	7.952151775	-13.5483408	1.0
41	2.847419977	0	0	4.148775578	7.636302948	-14.40985107	1.0
42	2.847419977	0	0	-3.185482025	-0.7351488471	-12.39747238	1.0
43	2.847419977	0	0	-6.610449314	-8.787166595	-10.2365799	1.0
44	2.847419977	0	0	-10.99493217	-16.63424873	-1.925233603	1.0
[LeftHand]
39	2.258270025	0	0	4.19877243	2.760718107	-2.920916796	1.0
40	2.258270025	0	0	0.4655351043	3.469721317	-5.19416523	1.0
41	2.258270025	0	0	5.077310085	2.979290247	-1.330510855	1.0
42	2.258270025	0	0	-3.264858723	-0.2353450209	1.627076626	1.0
43	2.258270025	0	0	-7.512039661	-2.288794518	5.629383564	1.0
44	2.258270025	0	0	-11.35317802	-2.602508545	3.173659563	1.0
[RightShoulder]
39	-0.3646599948	1.825889945	-0.04271000251	0.6341868639	10.21330833	-182.4624634	1.0
40	-0.3646599948	1.825889945	-0.04271000251	4.34461689	8.677339554	-181.6454315	1.0
41	-0.3646599948	1.825889945	-0.04271000251	3.732278585	7.458416462	-181.4916687	1.0
42	-0.3646599948	1.825889945	-0.04271000251	0.003791749477	5.571957588	-181.8398438	1.0
43	-0.3646599948	1.825889945	-0.04271000251	-3.312346697	4.697737217	-180.6813812	1.0
44	-0.3646599948	1.825889945	-0.04271000251	-4.951544285	5.747192383	-178.7286072	1.0
[RightArm]
39	-1.24003005	0	0	-21.3375206	-31.10010529	-94.45986938	1.0
40	-1.24003005	0	0	-28.87848663	-32.36821365	-95.39151001	1.0
41	-1.24003005	0	0	-19.53615761	-29.79294968	-96.58779144	1.0
42	-1.24003005	0	0	-7.367168427	-24.95616531	-98.92647552	1.0
43	-1.24003005	0	0	9.044101715	-17.80641174	-101.0359802	1.0
44	-1.24003005	0	0	18.23428345	-10.20053101	-105.0272522	1.0
[RightForeArm]
39	-2.847419977	0	0	24.49696732	-7.831027985	193.3033905	1.0
40	-2.847419977	0	0	24.03574181	-8.691679001	192.9938507	1.0
41	-2.847419977	0	0	18.98652077	-5.380293846	191.8265839	1.0
42	-2.847419977	0	0	14.49491501	0.381539315	189.9516602	1.0
43	-2.847419977	0	0	6.625340462	5.797343254	184.9545746	1.0
44	-2.847419977	0	0	2.560774565	9.56578064	180.0192261	1.0
[RightHand]
39	-2.258270025	0	0	25.42016029	1.542445064	180.3693542	1.0
40	-2.258270025	0	0	25.02863503	1.60430038	180.0119019	1.0
41	-2.258270025	0	0	19.52356911	3.012046099	179.2099762	1.0
42	-2.258270025	0	0	14.35950756	4.558236122	177.0649414	1.0
43	-2.258270025	0	0	6.098743916	5.8930583	174.772934	1.0
44	-2.258270025	0	0	2.14968729	6.331631184	172.5468597	1.0
[LeftUpLeg]
39	0.9119900465	0	0	8.537575722	14.14299965	96.78314209	1.0
40	0.9119900465	0	0	10.71343899	13.27057266	97.16868591	1.0
41	0.9119900465	0	0	9.601670265	11.05602551	97.33354187	1.0
42	0.9119900465	0	0	8.334682465	10.61261082	96.0881958	1.0
43	0.9119900465	0	0	5.802660942	10.38781166	94.51347351	1.0
44	0.9119900465	0	0	3.343644142	9.964895248	93.03627777	1.0
[LeftLeg]
39	0	-4.371409893	0	31.39468765	-7.079063416	84.97709656	1.0
40	0	-4.371409893	0	29.98310471	-5.80906868	86.40488434	1.0
41	0	-4.371409893	0	28.9418087	-5.47802639	85.75256348	1.0
42	0	-4.371409893	0	26.59314537	-4.333580017	86.80157471	1.0
43	0	-4.371409893	0	23.26789093	-4.117265224	86.5778656	1.0
44	0	-4.371409893	0	20.94337463	-0.6313778162	86.52748871	1.0
[LeftFoot]
39	0	-3.918009996	0	-101.7257996	111.8557968	-55.75550079	1.0
40	0	-3.918009996	0	-101.709465	111.5549622	-57.20325089	1.0
41	0	-3.918009996	0	-95.90183258	113.1599426	-50.42169189	1.0
42	0	-3.918009996	0	-100.8166046	114.1589508	-55.79000854	1.0
43	0	-3.918009996	0	-102.7478333	114.4308929	-58.64037323	1.0
44	0	-3.918009996	0	-109.4617004	115.4897919	-66.10374451	1.0
[LeftToeBase]
39	0	-0.5927900076	1.367989898	0	0	0	1.0
40	0	-0.5927900076	1.367989898	0	0	0	1.0
41	0	-0.5927900076	1.367989898	0	0	0	1.0
42	0	-0.5927900076	1.367989898	0	0	0	1.0
43	0	-0.5927900076	1.367989898	0	0	0	1.0
44	0	-0.5927900076	1.367989898	0	0	0	1.0
[RightUpLeg]
39	-0.9119900465	0	0	-87.48500824	9.932191849	118.8647308	1.0
40	-0.9119900465	0	0	-89.23953247	9.795096397	119.7045593	1.0
41	-0.9119900465	0	0	-87.52204132	7.382373333	119.3677673	1.0
42	-0.9119900465	0	0	-82.31167603	3.565366507	117.9322205	1.0
43	-0.9119900465	0	0	-76.13610077	1.901024818	116.1696548	1.0
44	-0.9119900465	0	0	-68.81142426	0.7595317364	112.9142685	1.0
[RightLeg]
39	0	-4.371409893	0	108.6034698	16.00133896	89.0216217	1.0
40	0	-4.371409893	0	112.0454559	12.649189	92.38718414	1.0
41	0	-4.371409893	0	115.1545181	11.50705338	90.9491806	1.0
42	0	-4.371409893	0	116.799118	13.33621025	87.99520874	1.0
43	0	-4.371409893	0	115.3340683	16.86200905	83.8013916	1.0
44	0	-4.371409893	0	111.0502243	17.51768112	79.95704651	1.0
[RightFoot]
39	0	-3.918009996	0	36.23754501	57.38344574	87.41777802	1.0
40	0	-3.918009996	0	35.90665817	56.52989197	83.84379578	1.0
41	0	-3.918009996	0	38.21588516	57.93122864	83.4931488	1.0
42	0	-3.918009996	0	45.27337646	59.77123642	86.68237305	1.0
43	0	-3.918009996	0	52.46879578	60.13600922	92.33877563	1.0
44	0	-3.918009996	0	54.63813019	61.98762512	92.3805542	1.0
[RightToeBase]
39	0	-0.5927900076	1.367989898	0	0	0	1.0
40	0	-0.5927900076	1.367989898	0	0	0	1.0
41	0	-0.5927900076	1.367989898	0	0	0	1.0
42	0	-0.5927900076	1.367989898	0	0	0	1.0
43	0	-0.5927900076	1.367989898	0	0	0	1.0
44	0	-0.5927900076	1.367989898	0	0	0	1.0
[EndOfFile]
